<svg width="18" height="18" viewBox="0 0 18 18" fill="none" xmlns="http://www.w3.org/2000/svg">
<path d="M6.75 10.9688C7.21599 10.9688 7.59375 10.591 7.59375 10.125C7.59375 9.65901 7.21599 9.28125 6.75 9.28125C6.28401 9.28125 5.90625 9.65901 5.90625 10.125C5.90625 10.591 6.28401 10.9688 6.75 10.9688Z" fill="white"/>
<path d="M11.25 10.9688C11.716 10.9688 12.0938 10.591 12.0938 10.125C12.0938 9.65901 11.716 9.28125 11.25 9.28125C10.784 9.28125 10.4062 9.65901 10.4062 10.125C10.4062 10.591 10.784 10.9688 11.25 10.9688Z" fill="white"/>
<path d="M5.23157 5.62506C6.45103 5.24337 7.72243 5.05361 9.0002 5.06256C10.2779 5.05361 11.5493 5.24337 12.7688 5.62504" stroke="white" stroke-linecap="round" stroke-linejoin="round"/>
<path d="M12.7687 12.375C11.5493 12.7567 10.2779 12.9464 9.00014 12.9375C7.72239 12.9464 6.45102 12.7567 5.23157 12.375" stroke="white" stroke-linecap="round" stroke-linejoin="round"/>
<path d="M10.9014 12.803L11.7469 14.494C11.8033 14.6076 11.8965 14.6987 12.0113 14.7525C12.1261 14.8063 12.2558 14.8195 12.3791 14.79C14.1045 14.3682 15.5919 13.6327 16.6752 12.6911C16.758 12.62 16.8184 12.5265 16.8492 12.4218C16.88 12.3172 16.88 12.2058 16.849 12.1012L14.4602 4.13858C14.4361 4.05829 14.3944 3.98438 14.3381 3.92224C14.2819 3.8601 14.2125 3.81128 14.1349 3.77935C13.4601 3.50304 12.7621 3.28697 12.0492 3.13367C11.9133 3.10391 11.7713 3.12539 11.6503 3.19401C11.5294 3.26262 11.438 3.37351 11.3939 3.50538L10.8333 5.18722" stroke="white" stroke-linecap="round" stroke-linejoin="round"/>
<path d="M7.09847 12.803L6.25294 14.494C6.19661 14.6076 6.1034 14.6987 5.98857 14.7525C5.87374 14.8063 5.74407 14.8195 5.62075 14.79C3.89538 14.3682 2.40798 13.6327 1.32465 12.6911C1.24193 12.62 1.18151 12.5265 1.15068 12.4218C1.11984 12.3172 1.1199 12.2058 1.15085 12.1012L3.53963 4.13857C3.56374 4.05828 3.60546 3.98438 3.66173 3.92224C3.718 3.86009 3.78742 3.81128 3.86493 3.77934C4.53979 3.50303 5.23777 3.28697 5.95071 3.13367C6.08655 3.10391 6.22859 3.1254 6.34954 3.19401C6.47049 3.26262 6.56182 3.37351 6.60597 3.50537L7.16658 5.18722" stroke="white" stroke-linecap="round" stroke-linejoin="round"/>
<path d="M6.75 10.9688C7.21599 10.9688 7.59375 10.591 7.59375 10.125C7.59375 9.65901 7.21599 9.28125 6.75 9.28125C6.28401 9.28125 5.90625 9.65901 5.90625 10.125C5.90625 10.591 6.28401 10.9688 6.75 10.9688Z" fill="white"/>
<path d="M11.25 10.9688C11.716 10.9688 12.0938 10.591 12.0938 10.125C12.0938 9.65901 11.716 9.28125 11.25 9.28125C10.784 9.28125 10.4062 9.65901 10.4062 10.125C10.4062 10.591 10.784 10.9688 11.25 10.9688Z" fill="white"/>
<path d="M5.23157 5.62506C6.45103 5.24337 7.72243 5.05361 9.0002 5.06256C10.2779 5.05361 11.5493 5.24337 12.7688 5.62504" stroke="white" stroke-linecap="round" stroke-linejoin="round"/>
<path d="M12.7687 12.375C11.5493 12.7567 10.2779 12.9464 9.00014 12.9375C7.72239 12.9464 6.45102 12.7567 5.23157 12.375" stroke="white" stroke-linecap="round" stroke-linejoin="round"/>
<path d="M10.9014 12.803L11.7469 14.494C11.8033 14.6076 11.8965 14.6987 12.0113 14.7525C12.1261 14.8063 12.2558 14.8195 12.3791 14.79C14.1045 14.3682 15.5919 13.6327 16.6752 12.6911C16.758 12.62 16.8184 12.5265 16.8492 12.4218C16.88 12.3172 16.88 12.2058 16.849 12.1012L14.4602 4.13858C14.4361 4.05829 14.3944 3.98438 14.3381 3.92224C14.2819 3.8601 14.2125 3.81128 14.1349 3.77935C13.4601 3.50304 12.7621 3.28697 12.0492 3.13367C11.9133 3.10391 11.7713 3.12539 11.6503 3.19401C11.5294 3.26262 11.438 3.37351 11.3939 3.50538L10.8333 5.18722" stroke="white" stroke-linecap="round" stroke-linejoin="round"/>
<path d="M7.09847 12.803L6.25294 14.494C6.19661 14.6076 6.1034 14.6987 5.98857 14.7525C5.87374 14.8063 5.74407 14.8195 5.62075 14.79C3.89538 14.3682 2.40798 13.6327 1.32465 12.6911C1.24193 12.62 1.18151 12.5265 1.15068 12.4218C1.11984 12.3172 1.1199 12.2058 1.15085 12.1012L3.53963 4.13857C3.56374 4.05828 3.60546 3.98438 3.66173 3.92224C3.718 3.86009 3.78742 3.81128 3.86493 3.77934C4.53979 3.50303 5.23777 3.28697 5.95071 3.13367C6.08655 3.10391 6.22859 3.1254 6.34954 3.19401C6.47049 3.26262 6.56182 3.37351 6.60597 3.50537L7.16658 5.18722" stroke="white" stroke-linecap="round" stroke-linejoin="round"/>
</svg>
