<svg width="18" height="18" viewBox="0 0 18 18" fill="none" xmlns="http://www.w3.org/2000/svg">
<path d="M5.90625 16.3125C6.3538 16.3125 6.78303 16.1347 7.09949 15.8182C7.41596 15.5018 7.59375 15.0726 7.59375 14.625V11.25" stroke="white" stroke-linecap="round" stroke-linejoin="round"/>
<path d="M12.0938 16.3125C11.6462 16.3125 11.217 16.1347 10.9005 15.8182C10.584 15.5018 10.4063 15.0726 10.4062 14.625V11.25" stroke="white" stroke-linecap="round" stroke-linejoin="round"/>
<path d="M10.6875 11.25H11.8125C12.2601 11.25 12.6893 11.4278 13.0057 11.7443C13.3222 12.0607 13.5 12.4899 13.5 12.9375V13.5C13.5 13.9476 13.6778 14.3768 13.9943 14.6932C14.3107 15.0097 14.7399 15.1875 15.1875 15.1875" stroke="white" stroke-linecap="round" stroke-linejoin="round"/>
<path d="M7.3125 11.25H6.1875C5.73995 11.25 5.31072 11.4278 4.99426 11.7443C4.67779 12.0607 4.5 12.4899 4.5 12.9375V13.5C4.5 13.9476 4.32221 14.3768 4.00574 14.6932C3.68928 15.0097 3.26005 15.1875 2.8125 15.1875" stroke="white" stroke-linecap="round" stroke-linejoin="round"/>
<path d="M4.53598 5.39323C4.33928 4.8843 4.25921 4.33773 4.30165 3.79376C4.3441 3.24979 4.50799 2.72226 4.78125 2.25C5.3953 2.24965 5.99953 2.40408 6.53811 2.69901C7.07669 2.99394 7.53224 3.41986 7.86268 3.93742L10.1373 3.9375C10.4678 3.41994 10.9233 2.99394 11.4619 2.69901C12.0005 2.40408 12.6047 2.24965 13.2188 2.25C13.492 2.72226 13.6559 3.24979 13.6984 3.79376C13.7408 4.33773 13.6607 4.8843 13.464 5.39323C13.8548 5.9569 14.0636 6.62665 14.0625 7.3125V7.875C14.0625 8.77011 13.7069 9.62855 13.074 10.2615C12.4411 10.8944 11.5826 11.25 10.6875 11.25H7.3125C6.4174 11.25 5.55895 10.8944 4.92602 10.2615C4.29308 9.62855 3.9375 8.77011 3.9375 7.875V7.3125C3.9364 6.62665 4.14525 5.9569 4.53598 5.39323Z" stroke="white" stroke-linecap="round" stroke-linejoin="round"/>
</svg>
