<svg width="12" height="9" viewBox="0 0 12 9" fill="none" xmlns="http://www.w3.org/2000/svg">
<path d="M1.42297 1.83598C1.43788 1.69682 1.3817 1.55927 1.27171 1.46561L0.151261 0.190476V0H3.63025L6.31933 5.57143L8.68347 0H12V0.190476L11.042 1.0582C10.9594 1.11767 10.9185 1.21542 10.9356 1.31217V7.68783C10.9185 7.78458 10.9594 7.88233 11.042 7.9418L11.9776 8.80952V9H7.27171V8.80952L8.2409 7.92064C8.33613 7.83069 8.33613 7.80423 8.33613 7.66667V2.51323L5.64146 8.97884H5.27731L2.14006 2.51323V6.84656C2.1139 7.02875 2.17795 7.21217 2.31373 7.34392L3.57423 8.78836V8.97884H0V8.78836L1.2605 7.34392C1.39529 7.21195 1.45561 7.02731 1.42297 6.84656V1.83598Z" fill="white"/>
</svg>
