<svg width="18" height="18" viewBox="0 0 18 18" fill="none" xmlns="http://www.w3.org/2000/svg">
<path d="M13.2188 3.375C13.8401 3.375 14.3438 2.87132 14.3438 2.25C14.3438 1.62868 13.8401 1.125 13.2188 1.125C12.5974 1.125 12.0938 1.62868 12.0938 2.25C12.0938 2.87132 12.5974 3.375 13.2188 3.375Z" stroke="white" stroke-linecap="round" stroke-linejoin="round"/>
<path d="M11.322 12.375C10.6038 12.7446 9.80767 12.9375 8.99989 12.9375C8.19212 12.9375 7.39601 12.7446 6.67776 12.375" stroke="white" stroke-linecap="round" stroke-linejoin="round"/>
<path d="M9 5.0625L9.5625 1.6875L12.1068 2.07893" stroke="white" stroke-linecap="round" stroke-linejoin="round"/>
<path d="M4.17722 6.31958C5.46454 5.53699 7.15228 5.0625 9.00009 5.0625C10.8479 5.0625 12.5356 5.53699 13.823 6.31958L13.8229 6.31973C13.9704 6.11707 14.1611 5.9498 14.3813 5.83008C14.6015 5.71035 14.8456 5.64118 15.0959 5.62758C15.3461 5.61398 15.5963 5.65629 15.8282 5.75145C16.06 5.8466 16.2678 5.99221 16.4364 6.17769C16.605 6.36318 16.7301 6.58388 16.8027 6.82377C16.8753 7.06366 16.8936 7.31671 16.8562 7.56454C16.8188 7.81237 16.7267 8.04877 16.5865 8.25655C16.4463 8.46432 16.2616 8.63827 16.0459 8.76576L16.046 8.7657C16.2213 9.19748 16.3118 9.65899 16.3126 10.125C16.3126 12.9209 13.0387 15.1875 9.00009 15.1875C4.96151 15.1875 1.68759 12.9209 1.68759 10.125C1.68836 9.65899 1.77888 9.19748 1.95419 8.7657L1.95434 8.76576C1.73852 8.63828 1.55382 8.46433 1.41363 8.25655C1.27345 8.04877 1.18131 7.81237 1.1439 7.56452C1.10649 7.31668 1.12476 7.06362 1.19738 6.82372C1.27 6.58382 1.39514 6.36311 1.56372 6.17761C1.73229 5.99212 1.94007 5.84651 2.17196 5.75135C2.40384 5.6562 2.65401 5.61388 2.90429 5.62749C3.15457 5.6411 3.39868 5.71029 3.61888 5.83003C3.83908 5.94976 4.02984 6.11705 4.17731 6.31972L4.17722 6.31958Z" stroke="white" stroke-linecap="round" stroke-linejoin="round"/>
<path d="M6.1875 10.4062C6.80882 10.4062 7.3125 9.90257 7.3125 9.28125C7.3125 8.65993 6.80882 8.15625 6.1875 8.15625C5.56618 8.15625 5.0625 8.65993 5.0625 9.28125C5.0625 9.90257 5.56618 10.4062 6.1875 10.4062Z" fill="white"/>
<path d="M11.8125 10.4062C12.4338 10.4062 12.9375 9.90257 12.9375 9.28125C12.9375 8.65993 12.4338 8.15625 11.8125 8.15625C11.1912 8.15625 10.6875 8.65993 10.6875 9.28125C10.6875 9.90257 11.1912 10.4062 11.8125 10.4062Z" fill="white"/>
</svg>
