<svg width="16" height="14" viewBox="0 0 16 14" fill="none" xmlns="http://www.w3.org/2000/svg">
<path d="M1.37507 12.0625C1.37507 12.0625 4.18757 11.5 4.75007 9.8125C4.75007 9.8125 0.250075 8.125 1.37507 1.9375C1.37507 1.9375 3.62507 4.75 7.00007 5.3125V4.18771C7.00014 3.5415 7.22268 2.91503 7.63029 2.4136C8.0379 1.91218 8.60573 1.56638 9.23829 1.43435C9.87086 1.30231 10.5296 1.3921 11.1038 1.6886C11.6779 1.98511 12.1325 2.47025 12.391 3.06248L14.8751 3.0625L12.6251 5.3125C12.6251 9.25 9.81257 13.1875 4.75007 13.1875C2.50007 13.1875 1.37507 12.0625 1.37507 12.0625Z" stroke="white" stroke-linecap="round" stroke-linejoin="round"/>
</svg>
