<svg width="18" height="18" viewBox="0 0 18 18" fill="none" xmlns="http://www.w3.org/2000/svg">
<path d="M11.25 9L7.875 6.75V11.25L11.25 9Z" stroke="white" stroke-linecap="round" stroke-linejoin="round"/>
<path d="M1.6875 8.99998C1.6875 11.0922 1.90365 12.3197 2.06797 12.9506C2.11189 13.1229 2.19624 13.2823 2.31402 13.4155C2.43181 13.5487 2.57964 13.6519 2.74527 13.7166C5.09912 14.6212 9 14.5963 9 14.5963C9 14.5963 12.9008 14.6212 15.2547 13.7166C15.4203 13.6519 15.5682 13.5487 15.686 13.4155C15.8037 13.2823 15.8881 13.1229 15.932 12.9506C16.0963 12.3197 16.3125 11.0922 16.3125 8.99998C16.3125 6.90779 16.0963 5.68026 15.932 5.04936C15.8881 4.87705 15.8038 4.71769 15.686 4.58448C15.5682 4.45127 15.4204 4.34804 15.2547 4.28335C12.9009 3.37879 9 3.40363 9 3.40363C9 3.40363 5.09916 3.37879 2.7453 4.28334C2.57966 4.34803 2.43183 4.45126 2.31404 4.58447C2.19626 4.71768 2.11191 4.87704 2.06798 5.04934C1.90366 5.68024 1.6875 6.90779 1.6875 8.99998Z" stroke="white" stroke-linecap="round" stroke-linejoin="round"/>
</svg>
